<svg id="visual" viewBox="0 0 960 540" width="960" height="540" xmlns="http://www.w3.org/2000/svg" xmlns:xlink="http://www.w3.org/1999/xlink" version="1.1"><rect x="0" y="0" width="960" height="540" fill="#03071e"></rect><path d="M0 283L17.8 294C35.7 305 71.3 327 106.8 342.3C142.3 357.7 177.7 366.3 213.2 358.2C248.7 350 284.3 325 320 311.2C355.7 297.3 391.3 294.7 426.8 303.7C462.3 312.7 497.7 333.3 533.2 333C568.7 332.7 604.3 311.3 640 307.3C675.7 303.3 711.3 316.7 746.8 324.8C782.3 333 817.7 336 853.2 330.2C888.7 324.3 924.3 309.7 942.2 302.3L960 295L960 541L942.2 541C924.3 541 888.7 541 853.2 541C817.7 541 782.3 541 746.8 541C711.3 541 675.7 541 640 541C604.3 541 568.7 541 533.2 541C497.7 541 462.3 541 426.8 541C391.3 541 355.7 541 320 541C284.3 541 248.7 541 213.2 541C177.7 541 142.3 541 106.8 541C71.3 541 35.7 541 17.8 541L0 541Z" fill="#fa7268"></path><path d="M0 408L17.8 406.5C35.7 405 71.3 402 106.8 394.3C142.3 386.7 177.7 374.3 213.2 368.8C248.7 363.3 284.3 364.7 320 371C355.7 377.3 391.3 388.7 426.8 387C462.3 385.3 497.7 370.7 533.2 365.8C568.7 361 604.3 366 640 368.3C675.7 370.7 711.3 370.3 746.8 368C782.3 365.7 817.7 361.3 853.2 355.2C888.7 349 924.3 341 942.2 337L960 333L960 541L942.2 541C924.3 541 888.7 541 853.2 541C817.7 541 782.3 541 746.8 541C711.3 541 675.7 541 640 541C604.3 541 568.7 541 533.2 541C497.7 541 462.3 541 426.8 541C391.3 541 355.7 541 320 541C284.3 541 248.7 541 213.2 541C177.7 541 142.3 541 106.8 541C71.3 541 35.7 541 17.8 541L0 541Z" fill="#c75357"></path><path d="M0 413L17.8 410.5C35.7 408 71.3 403 106.8 395.7C142.3 388.3 177.7 378.7 213.2 378C248.7 377.3 284.3 385.7 320 387C355.7 388.3 391.3 382.7 426.8 387C462.3 391.3 497.7 405.7 533.2 413.2C568.7 420.7 604.3 421.3 640 423C675.7 424.7 711.3 427.3 746.8 426.7C782.3 426 817.7 422 853.2 421.3C888.7 420.7 924.3 423.3 942.2 424.7L960 426L960 541L942.2 541C924.3 541 888.7 541 853.2 541C817.7 541 782.3 541 746.8 541C711.3 541 675.7 541 640 541C604.3 541 568.7 541 533.2 541C497.7 541 462.3 541 426.8 541C391.3 541 355.7 541 320 541C284.3 541 248.7 541 213.2 541C177.7 541 142.3 541 106.8 541C71.3 541 35.7 541 17.8 541L0 541Z" fill="#943643"></path><path d="M0 445L17.8 441.3C35.7 437.7 71.3 430.3 106.8 434C142.3 437.7 177.7 452.3 213.2 457.5C248.7 462.7 284.3 458.3 320 453.2C355.7 448 391.3 442 426.8 440.3C462.3 438.7 497.7 441.3 533.2 440.5C568.7 439.7 604.3 435.3 640 438.2C675.7 441 711.3 451 746.8 452.3C782.3 453.7 817.7 446.3 853.2 439.8C888.7 433.3 924.3 427.7 942.2 424.8L960 422L960 541L942.2 541C924.3 541 888.7 541 853.2 541C817.7 541 782.3 541 746.8 541C711.3 541 675.7 541 640 541C604.3 541 568.7 541 533.2 541C497.7 541 462.3 541 426.8 541C391.3 541 355.7 541 320 541C284.3 541 248.7 541 213.2 541C177.7 541 142.3 541 106.8 541C71.3 541 35.7 541 17.8 541L0 541Z" fill="#641d2d"></path><path d="M0 465L17.8 470.7C35.7 476.3 71.3 487.7 106.8 494.2C142.3 500.7 177.7 502.3 213.2 497.7C248.7 493 284.3 482 320 475.7C355.7 469.3 391.3 467.7 426.8 470C462.3 472.3 497.7 478.7 533.2 485.3C568.7 492 604.3 499 640 500.5C675.7 502 711.3 498 746.8 496C782.3 494 817.7 494 853.2 488.3C888.7 482.7 924.3 471.3 942.2 465.7L960 460L960 541L942.2 541C924.3 541 888.7 541 853.2 541C817.7 541 782.3 541 746.8 541C711.3 541 675.7 541 640 541C604.3 541 568.7 541 533.2 541C497.7 541 462.3 541 426.8 541C391.3 541 355.7 541 320 541C284.3 541 248.7 541 213.2 541C177.7 541 142.3 541 106.8 541C71.3 541 35.7 541 17.8 541L0 541Z" fill="#370617"></path></svg>