<svg id="visual" viewBox="0 0 960 540" width="960" height="540" xmlns="http://www.w3.org/2000/svg" xmlns:xlink="http://www.w3.org/1999/xlink" version="1.1"><rect x="0" y="0" width="960" height="540" fill="#001220"></rect><defs><linearGradient id="grad1_0" x1="43.8%" y1="0%" x2="100%" y2="100%"><stop offset="14.444444444444446%" stop-color="#fbae3c" stop-opacity="1"></stop><stop offset="85.55555555555554%" stop-color="#fbae3c" stop-opacity="1"></stop></linearGradient></defs><defs><linearGradient id="grad1_1" x1="43.8%" y1="0%" x2="100%" y2="100%"><stop offset="14.444444444444446%" stop-color="#fbae3c" stop-opacity="1"></stop><stop offset="85.55555555555554%" stop-color="#cc5867" stop-opacity="1"></stop></linearGradient></defs><defs><linearGradient id="grad1_2" x1="43.8%" y1="0%" x2="100%" y2="100%"><stop offset="14.444444444444446%" stop-color="#593762" stop-opacity="1"></stop><stop offset="85.55555555555554%" stop-color="#cc5867" stop-opacity="1"></stop></linearGradient></defs><defs><linearGradient id="grad1_3" x1="43.8%" y1="0%" x2="100%" y2="100%"><stop offset="14.444444444444446%" stop-color="#593762" stop-opacity="1"></stop><stop offset="85.55555555555554%" stop-color="#001220" stop-opacity="1"></stop></linearGradient></defs><defs><linearGradient id="grad2_0" x1="0%" y1="0%" x2="56.3%" y2="100%"><stop offset="14.444444444444446%" stop-color="#fbae3c" stop-opacity="1"></stop><stop offset="85.55555555555554%" stop-color="#fbae3c" stop-opacity="1"></stop></linearGradient></defs><defs><linearGradient id="grad2_1" x1="0%" y1="0%" x2="56.3%" y2="100%"><stop offset="14.444444444444446%" stop-color="#cc5867" stop-opacity="1"></stop><stop offset="85.55555555555554%" stop-color="#fbae3c" stop-opacity="1"></stop></linearGradient></defs><defs><linearGradient id="grad2_2" x1="0%" y1="0%" x2="56.3%" y2="100%"><stop offset="14.444444444444446%" stop-color="#cc5867" stop-opacity="1"></stop><stop offset="85.55555555555554%" stop-color="#593762" stop-opacity="1"></stop></linearGradient></defs><defs><linearGradient id="grad2_3" x1="0%" y1="0%" x2="56.3%" y2="100%"><stop offset="14.444444444444446%" stop-color="#001220" stop-opacity="1"></stop><stop offset="85.55555555555554%" stop-color="#593762" stop-opacity="1"></stop></linearGradient></defs><g transform="translate(960, 0)"><path d="M0 459C-26.3 434.1 -52.7 409.2 -79 397.2C-105.3 385.2 -131.7 386 -156.1 376.9C-180.6 367.9 -203.3 349 -219.5 328.4C-235.6 307.9 -245.4 285.8 -277.9 277.9C-310.4 270 -365.7 276.3 -381.6 255C-397.6 233.7 -374.3 184.7 -363.1 150.4C-351.9 116.1 -352.7 96.4 -370.7 73.7C-388.7 51.1 -423.9 25.6 -459 0L0 0Z" fill="#232745"></path><path d="M0 344.3C-19.8 325.6 -39.5 306.9 -59.3 297.9C-79 288.9 -98.7 289.5 -117.1 282.7C-135.5 275.9 -152.4 261.7 -164.6 246.3C-176.7 230.9 -184 214.3 -208.4 208.4C-232.8 202.5 -274.3 207.2 -286.2 191.3C-298.2 175.3 -280.7 138.5 -272.3 112.8C-263.9 87 -264.6 72.3 -278.1 55.3C-291.6 38.3 -317.9 19.2 -344.2 0L0 0Z" fill="#96446e"></path><path d="M0 229.5C-13.2 217.1 -26.3 204.6 -39.5 198.6C-52.7 192.6 -65.8 193 -78.1 188.5C-90.3 183.9 -101.6 174.5 -109.7 164.2C-117.8 154 -122.7 142.9 -138.9 138.9C-155.2 135 -182.8 138.2 -190.8 127.5C-198.8 116.8 -187.2 92.4 -181.5 75.2C-175.9 58 -176.4 48.2 -185.4 36.9C-194.4 25.6 -211.9 12.8 -229.5 0L0 0Z" fill="#f17c53"></path><path d="M0 114.8C-6.6 108.5 -13.2 102.3 -19.8 99.3C-26.3 96.3 -32.9 96.5 -39 94.2C-45.2 92 -50.8 87.2 -54.9 82.1C-58.9 77 -61.3 71.4 -69.5 69.5C-77.6 67.5 -91.4 69.1 -95.4 63.8C-99.4 58.4 -93.6 46.2 -90.8 37.6C-88 29 -88.2 24.1 -92.7 18.4C-97.2 12.8 -106 6.4 -114.7 0L0 0Z" fill="#fbae3c"></path></g><g transform="translate(0, 540)"><path d="M0 -459C26.5 -431.8 52.9 -404.6 77.5 -389.4C102 -374.1 124.6 -370.9 153.5 -370.5C182.4 -370.1 217.6 -372.5 236.1 -353.4C254.7 -334.3 256.6 -293.7 267.3 -267.3C278 -240.8 297.6 -228.5 320.9 -214.5C344.3 -200.4 371.5 -184.5 395.4 -163.8C419.4 -143.1 440.1 -117.6 450.2 -89.5C460.2 -61.5 459.6 -30.7 459 0L0 0Z" fill="#232745"></path><path d="M0 -344.2C19.8 -323.8 39.7 -303.4 58.1 -292C76.5 -280.6 93.4 -278.2 115.1 -277.9C136.8 -277.5 163.2 -279.3 177.1 -265C191 -250.7 192.4 -220.3 200.5 -200.5C208.5 -180.6 223.2 -171.4 240.7 -160.8C258.2 -150.3 278.6 -138.3 296.6 -122.8C314.5 -107.3 330.1 -88.2 337.6 -67.2C345.2 -46.1 344.7 -23 344.3 0L0 0Z" fill="#96446e"></path><path d="M0 -229.5C13.2 -215.9 26.5 -202.3 38.7 -194.7C51 -187.1 62.3 -185.4 76.7 -185.2C91.2 -185 108.8 -186.2 118.1 -176.7C127.3 -167.1 128.3 -146.9 133.6 -133.6C139 -120.4 148.8 -114.3 160.5 -107.2C172.2 -100.2 185.7 -92.2 197.7 -81.9C209.7 -71.6 220.1 -58.8 225.1 -44.8C230.1 -30.7 229.8 -15.4 229.5 0L0 0Z" fill="#f17c53"></path><path d="M0 -114.7C6.6 -107.9 13.2 -101.1 19.4 -97.3C25.5 -93.5 31.1 -92.7 38.4 -92.6C45.6 -92.5 54.4 -93.1 59 -88.3C63.7 -83.6 64.1 -73.4 66.8 -66.8C69.5 -60.2 74.4 -57.1 80.2 -53.6C86.1 -50.1 92.9 -46.1 98.9 -40.9C104.8 -35.8 110 -29.4 112.5 -22.4C115.1 -15.4 114.9 -7.7 114.8 0L0 0Z" fill="#fbae3c"></path></g></svg>